PathFileType	4	(X/Y/Z)	C:/Users/opensim2020/Desktop/walking_exp_matlab/subject06_walking23_straight_03.trc	
DataRate	CameraRate	NumFrames	NumMarkers	Units	OrigDataRate	OrigDataStartFrame	OrigNumFrames	
100.00	100.00	4	45	mm	100.00	1763	94	
Frame#	Time	LFHD			RFHD			LBHD			RBHD			C7			T10			CLAV			STRN			RBAK			LSHO			LUPA			LELB			LFRM			LWRA			LWRB			LFIN			RSHO			RUPA			RELB			RFRM			RWRA			RWRB			RFIN			LASI			RASI			LPSI			RPSI			LTHI			LKNE			LTIB			LANK			LHEE			LTOE			RTHI			RKNE			RTIB			RANK			RHEE			RTOE			*39			*40			*41			*42			*43			*44			
		X1	Y1	Z1	X2	Y2	Z2	X3	Y3	Z3	X4	Y4	Z4	X5	Y5	Z5	X6	Y6	Z6	X7	Y7	Z7	X8	Y8	Z8	X9	Y9	Z9	X10	Y10	Z10	X11	Y11	Z11	X12	Y12	Z12	X13	Y13	Z13	X14	Y14	Z14	X15	Y15	Z15	X16	Y16	Z16	X17	Y17	Z17	X18	Y18	Z18	X19	Y19	Z19	X20	Y20	Z20	X21	Y21	Z21	X22	Y22	Z22	X23	Y23	Z23	X24	Y24	Z24	X25	Y25	Z25	X26	Y26	Z26	X27	Y27	Z27	X28	Y28	Z28	X29	Y29	Z29	X30	Y30	Z30	X31	Y31	Z31	X32	Y32	Z32	X33	Y33	Z33	X34	Y34	Z34	X35	Y35	Z35	X36	Y36	Z36	X37	Y37	Z37	X38	Y38	Z38	X39	Y39	Z39	X40	Y40	Z40	X41	Y41	Z41	X42	Y42	Z42	X43	Y43	Z43	X44	Y44	Z44	X45	Y45	Z45	

24	0.230	1354.51709	-332.73074	1631.40234	1486.24780	-332.06845	1624.12964	1356.40784	-464.89975	1574.59351	1485.91321	-462.81384	1572.29065	1408.85718	-461.66260	1423.13782	1418.25525	-523.24963	1100.03442	1418.32776	-355.80600	1339.82458	1410.41956	-329.68851	1161.80872	1479.21399	-549.84406	1259.96423	1253.84167	-394.73291	1375.39221	1177.90820	-381.53113	1176.58948	1163.23962	-368.54791	1066.08740	1165.06079	-257.89008	970.36115	1232.44641	-146.46538	944.20630	1195.56714	-174.99873	890.61523	1212.18127	-87.73145	872.34320	1575.39038	-412.44061	1373.54529	1660.57813	-507.64822	1198.78137	1678.45496	-534.98608	1079.29163	1698.76807	-551.33209	960.42072	1670.23083	-528.20996	809.27887	1710.32397	-579.71429	826.49396	1711.01147	-568.42767	742.05676	1314.04272	-361.81436	924.16913	1530.51270	-344.16415	945.79871	1349.63269	-515.94971	959.54126	1516.04346	-497.76428	971.20807	1264.45898	-476.08310	613.63232	1284.30542	-505.28018	451.19699	1296.71350	-710.99530	299.08810	1334.89465	-840.93762	186.57312	1378.87585	-873.05701	214.03102	1358.96228	-797.00964	46.85446	1597.30212	-310.06311	631.45734	1562.93787	-256.38843	519.81171	1554.11865	-248.67238	252.84338	1500.42285	-236.50787	71.04063	1454.25085	-273.74219	48.47849	1497.27368	-83.83477	42.05599	1413.01025	-433.65561	1669.41455															 
25	0.240	1356.05151	-318.62247	1633.77954	1487.77478	-317.72397	1626.16895	1358.12708	-450.78534	1576.78259	1487.62463	-448.48065	1574.19507	1410.52283	-447.47482	1424.89307	1419.04346	-508.29926	1102.19861	1419.24475	-341.06482	1342.10999	1410.81665	-314.77542	1164.15808	1480.84045	-534.85699	1262.00720	1255.54443	-380.89090	1378.16565	1180.11975	-368.73767	1179.42725	1166.07019	-357.87509	1068.87378	1166.55920	-249.30539	970.41187	1232.82361	-138.03259	941.53302	1196.75610	-168.32849	888.92340	1213.02258	-81.71320	867.31061	1576.42126	-396.96613	1375.68799	1662.31982	-489.61823	1199.70374	1680.11926	-515.67963	1080.10107	1700.64478	-530.49329	961.16425	1672.37219	-505.82230	810.19336	1712.67358	-557.30029	826.93597	1713.23132	-545.31982	742.53027	1315.08325	-346.67111	926.22351	1531.77954	-329.23734	949.50824	1350.28003	-500.78607	961.04156	1516.54944	-482.94839	974.04443	1265.60779	-454.28802	612.80554	1284.64868	-478.60641	449.84750	1296.14905	-686.10486	303.26648	1332.96448	-819.43835	195.37354	1376.71106	-848.53168	225.85870	1357.87183	-788.93066	51.65178	1598.64575	-295.92908	634.11633	1564.67419	-245.74280	520.83466	1554.64941	-244.32013	253.15311	1500.44922	-236.24316	70.98441	1454.10461	-273.75653	48.51842	1497.18665	-83.40878	41.54694	1414.87598	-419.54993	1671.49451															 
26	0.250	1357.62634	-304.70523	1636.42517	1489.21057	-303.52509	1628.41699	1359.80627	-436.66125	1579.21594	1489.26880	-434.03375	1576.23364	1412.23230	-433.53854	1427.10083	1420.04077	-493.73718	1104.62463	1419.98145	-326.60043	1344.58508	1411.12549	-300.14627	1166.63623	1482.52698	-519.79944	1263.98645	1256.84729	-367.66699	1380.90686	1182.30115	-356.13788	1182.10095	1168.69177	-347.75943	1071.39038	1168.01758	-241.44777	969.99811	1233.06897	-129.97125	938.31824	1197.48010	-162.27982	886.62018	1213.75220	-76.82174	861.46747	1577.46594	-381.41977	1377.78137	1664.09924	-471.69882	1200.65576	1681.94055	-496.46048	1080.94348	1702.61963	-509.51169	961.84528	1674.18555	-483.13342	811.04559	1714.92871	-534.43512	827.45020	1715.31482	-521.42017	743.16034	1315.44226	-331.92371	928.19629	1532.77515	-314.47586	952.51154	1351.28369	-486.17120	962.66327	1517.52307	-468.12509	976.88763	1266.98193	-432.73761	612.40045	1285.37793	-451.82471	449.19263	1295.68457	-659.52191	306.63556	1331.11267	-795.88995	203.33224	1374.59351	-821.48077	236.73732	1357.61243	-778.58130	57.39124	1600.26965	-283.81165	635.77576	1566.49719	-237.36526	521.26892	1555.54028	-240.42195	253.35892	1500.45728	-236.27168	71.33645	1454.19202	-273.93719	48.66955	1496.98315	-83.22191	40.73818	1416.78027	-405.47699	1673.79858															 
27	0.260	1359.07275	-290.63193	1639.36902	1490.71497	-288.99606	1630.87708	1361.41614	-422.53381	1582.05884	1490.86780	-419.59189	1578.59216	1413.97498	-419.84763	1429.94104	1421.11328	-479.17395	1107.13025	1420.50684	-312.46243	1347.24268	1411.31177	-285.82559	1169.27808	1484.55908	-505.17758	1266.37708	1257.74426	-354.84775	1383.69812	1184.33020	-344.61050	1184.53979	1170.89636	-337.84741	1073.64282	1169.37952	-234.21268	969.30859	1233.23328	-122.46375	934.43628	1197.94470	-156.82896	883.75238	1214.34656	-72.09814	855.18646	1578.55505	-365.75839	1379.93909	1665.94580	-453.68204	1201.61755	1684.01526	-477.05350	1081.73682	1704.58789	-488.37796	962.49628	1676.04773	-459.68869	812.25110	1716.81982	-511.06924	827.68622	1717.47693	-496.87543	743.83020	1315.88708	-317.71902	930.29199	1534.18652	-299.60724	955.24048	1352.53418	-471.83734	964.39508	1518.72754	-454.05789	979.67786	1268.48926	-411.27090	612.58447	1286.38184	-424.60959	449.35214	1295.55286	-631.41620	308.83890	1329.91235	-771.80872	211.22569	1373.56641	-794.76727	245.91473	1355.73804	-762.71320	63.91188	1601.34436	-274.58487	635.81982	1568.22046	-229.86440	521.18695	1556.03821	-236.37067	253.66869	1500.39465	-236.00560	71.51409	1454.31177	-273.87305	48.85365	1496.78174	-82.78782	40.36553	1418.66296	-391.30359	1676.44678															 
